<svg width="85" height="85" viewBox="0 0 85 85" fill="none" xmlns="http://www.w3.org/2000/svg">
<path d="M42.5 79.6875C35.145 79.6875 27.9552 77.5065 21.8397 73.4203C15.7243 69.3341 10.9579 63.5262 8.14325 56.7311C5.32861 49.9359 4.59218 42.4588 6.02706 35.2451C7.46195 28.0314 11.0037 21.4052 16.2045 16.2045C21.4052 11.0037 28.0314 7.46195 35.2451 6.02706C42.4588 4.59218 49.9359 5.32861 56.7311 8.14325C63.5262 10.9579 69.3341 15.7243 73.4203 21.8397C77.5065 27.9552 79.6875 35.145 79.6875 42.5C79.6763 52.3593 75.7547 61.8116 68.7831 68.7831C61.8116 75.7547 52.3593 79.6763 42.5 79.6875ZM42.5 8.43627C35.7628 8.43627 29.177 10.4341 23.5752 14.177C17.9735 17.92 13.6074 23.24 11.0292 29.4644C8.45101 35.6887 7.77643 42.5378 9.09079 49.1455C10.4051 55.7532 13.6494 61.8228 18.4133 66.5867C23.1772 71.3506 29.2468 74.5949 35.8545 75.9092C42.4622 77.2236 49.3113 76.549 55.5356 73.9708C61.76 71.3926 67.08 67.0266 70.823 61.4248C74.566 55.8231 76.5638 49.2372 76.5638 42.5C76.5525 33.4692 72.9601 24.8115 66.5743 18.4257C60.1885 12.04 51.5308 8.44751 42.5 8.43627Z" fill="#33A9DC"/>
<path d="M7.39502 40.9381H77.605V44.0618H7.39502V40.9381ZM43.342 27.8215C32.6708 27.8687 22.0417 26.4803 11.7406 23.6937L12.6438 20.7028C12.9386 20.7931 42.5983 29.5215 72.2155 20.7028L73.1053 23.6964C63.4343 26.4959 53.4099 27.8852 43.342 27.8215ZM12.7102 63.5029L11.8203 60.512C42.3672 51.4223 71.9419 60.1401 73.1797 60.512L72.2766 63.5029C71.9844 63.4126 42.33 54.6868 12.7102 63.5029Z" fill="#33A9DC"/>
<path d="M30.4619 76.4044C21.2787 54.6898 20.5753 30.3203 28.4909 8.11218L31.365 9.33671C23.7711 30.7569 24.4743 54.2443 33.3359 75.1719L30.4619 76.4044ZM54.2964 76.4044L51.425 75.1719C60.285 54.2437 60.9862 30.7562 53.3906 9.33671L56.2647 8.11218C64.1786 30.3203 63.4762 54.6889 54.2964 76.4044ZM40.9381 7.39233H44.0592V78.8959H40.9381V7.39233Z" fill="#33A9DC"/>
<path d="M37.5249 76.7683L33.0491 26.5625H82.2322L77.7538 76.7603L57.6114 82.3438L37.5249 76.7683Z" fill="#1572B6"/>
<path d="M57.6406 78.0751L73.9155 73.5622L77.7458 30.6664H57.6406V78.0751Z" fill="#33A9DC"/>
<path d="M57.6406 48.8564H65.79L66.3505 42.5505H57.6406V36.3933H73.0814L72.9327 38.0455L71.4186 55.0136H57.6406V48.8564Z" fill="white"/>
<path d="M57.6777 64.847L57.6512 64.855L50.7927 63.0036L50.3544 58.0922H44.1733L45.0366 67.7609L57.6485 71.2618L57.6777 71.2539V64.847Z" fill="#EBEBEB"/>
<path d="M65.264 54.7533L64.5229 63.001L57.6565 64.8524V71.2592L70.279 67.761L70.372 66.7197L71.4424 54.7533H65.264Z" fill="white"/>
<path d="M57.6619 36.3933V42.5505H42.7896L42.6647 41.1666L42.3858 38.0455L42.2371 36.3933H57.6619ZM57.6407 48.8564V55.0163H50.8699L50.7477 53.6324L50.4661 50.5086L50.32 48.8564H57.6407Z" fill="#EBEBEB"/>
</svg>
